<svg width="98" height="126" viewBox="0 0 98 126" fill="none" xmlns="http://www.w3.org/2000/svg">
<g id="chart">
<path id="file" d="M13 126H85C92.2 126 98 120.2 98 113V36C98 35.2 97.7 34.5 97.1 33.9L64.1 0.9C63.3 0 62 -0.2 60.9 0.2C59.7 0.7 59 1.8 59 3V26C59 33.2 64.8 39 72 39H92V113C92 116.9 88.9 120 85 120H13C9.1 120 6 116.9 6 113V13C6 9.1 9.1 6 13 6H47C48.7 6 50 4.7 50 3C50 1.3 48.7 0 47 0H13C5.8 0 0 5.8 0 13V113C0 120.2 5.8 126 13 126Z"/>
<g id="chart_2">
<path id="bar-1" d="M24 90V100C24 102.8 26.2 105 29 105C31.8 105 34 102.8 34 100V90C34 87.2 31.8 85 29 85C26.2 85 24 87.2 24 90Z"/>
<path id="bar-2" d="M44 70V100C44 102.8 46.2 105 49 105C51.8 105 54 102.8 54 100V70C54 67.2 51.8 65 49 65C46.2 65 44 67.2 44 70Z"/>
<path id="bar-3" d="M74 100V80C74 77.2 71.8 75 69 75C66.2 75 64 77.2 64 80V100C64 102.8 66.2 105 69 105C71.8 105 74 102.8 74 100Z"/>
</g>
</g>
</svg>
