<svg width="102" height="102" viewBox="0 0 102 102" fill="none" xmlns="http://www.w3.org/2000/svg">
<g id="check">
<path id="check_2" d="M23 65C25.5 67.5 28.7 68.8 32.2 68.8C35.7 68.8 38.9 67.4 41.4 65L83.2 23.2C88.3 18.1 88.3 9.90001 83.2 4.80001C78.1 -0.299994 69.9 -0.299994 64.8 4.80001L32.2 37.4L23.7 28.9C18.6 23.8 10.4 23.8 5.3 28.9C0.199998 34 0.199998 42.2 5.3 47.3L23 65ZM9.6 33.1C12.3 30.4 16.8 30.4 19.5 33.1L30.1 43.7C31.3 44.9 33.2 44.9 34.3 43.7L69 9.00001C71.7 6.30001 76.2 6.30001 78.9 9.00001C81.6 11.7 81.6 16.2 78.9 18.9L37.1 60.7C35.8 62 34 62.7 32.2 62.7C30.3 62.7 28.6 62 27.2 60.6L9.6 43C6.8 40.3 6.8 35.9 9.6 33.1Z"/>
<path id="underline" d="M0 99C0 100.7 1.3 102 3 102H81C82.7 102 84 100.7 84 99C84 97.3 82.7 96 81 96H3C1.3 96 0 97.3 0 99Z"/>
<path id="dot" d="M99 102C100.657 102 102 100.657 102 99C102 97.3431 100.657 96 99 96C97.3431 96 96 97.3431 96 99C96 100.657 97.3431 102 99 102Z"/>
</g>
</svg>
