<svg width="112" height="125" viewBox="0 0 112 125" fill="none" xmlns="http://www.w3.org/2000/svg">
<g id="download">
<path id="box" d="M112 122V104C112 102.3 110.7 101 109 101C107.3 101 106 102.3 106 104V119H6V104C6 102.3 4.7 101 3 101C1.3 101 0 102.3 0 104V122C0 123.7 1.3 125 3 125H109C110.7 125 112 123.7 112 122Z"/>
<path id="arrow" d="M12.2 44.6C9.9 46.9 8.7 49.9 8.7 53.1C8.7 56.3 9.9 59.3 12.2 61.6L46.5 95.9C48.8 98.2 51.8 99.4 55 99.4C58.2 99.4 61.2 98.2 63.5 95.9L97.8 61.6C102.5 56.9 102.5 49.3 97.8 44.6C93.1 39.9 85.5 39.9 80.8 44.6L66 59.4V23C66 21.3 64.7 20 63 20C61.3 20 60 21.3 60 23V66.7C60 67.9 60.7 69 61.9 69.5C63 70 64.3 69.7 65.2 68.8L85.2 48.8C87.5 46.5 91.3 46.5 93.7 48.8C96 51.1 96 54.9 93.7 57.3L59.2 91.7C56.9 94 53.1 94 50.7 91.7L16.4 57.3C15.3 56.2 14.6 54.7 14.6 53.1C14.6 51.5 15.2 50 16.4 48.9C18.7 46.6 22.5 46.6 24.9 48.9L44.9 68.9C45.8 69.8 47 70 48.2 69.6C49.3 69.1 50.1 68 50.1 66.8V3C50.1 1.3 48.8 0 47.1 0C45.4 0 44.1 1.3 44.1 3V59.4L29.1 44.6C24.5 39.9 16.9 39.9 12.2 44.6Z"/>
<path id="dot" d="M63 6C64.6569 6 66 4.65685 66 3C66 1.34315 64.6569 0 63 0C61.3431 0 60 1.34315 60 3C60 4.65685 61.3431 6 63 6Z"/>
</g>
</svg>
