<svg width="92" height="98" viewBox="0 0 92 98" fill="none" xmlns="http://www.w3.org/2000/svg">
<g id="error">
<path id="cross" d="M2.79999 56.2C2.79999 59.7 4.19999 62.9 6.59999 65.4C9.09999 67.9 12.3 69.2 15.8 69.2C19.3 69.2 22.5 67.8 25 65.4L37 53.4L49 65.4C51.5 67.9 54.7 69.2 58.2 69.2C61.7 69.2 64.9 67.8 67.4 65.4C69.9 62.9 71.2 59.7 71.2 56.2C71.2 52.7 69.8 49.5 67.4 47L55.4 35L67.4 23C69.9 20.5 71.2 17.3 71.2 13.8C71.2 10.3 69.8 7.09999 67.4 4.59999C64.9 2.09999 61.7 0.799988 58.2 0.799988C54.7 0.799988 51.5 2.19999 49 4.59999L37 16.6L25 4.59999C22.5 2.09999 19.3 0.799988 15.8 0.799988C12.3 0.799988 9.09999 2.19999 6.59999 4.59999C4.09999 7.09999 2.79999 10.3 2.79999 13.8C2.79999 17.3 4.19999 20.5 6.59999 23L18.6 35L6.59999 47C4.09999 49.5 2.79999 52.7 2.79999 56.2ZM10.8 51.3L25 37.1C26.2 35.9 26.2 34 25 32.9L10.8 18.7C9.49999 17.4 8.69999 15.6 8.69999 13.7C8.69999 11.8 9.39999 10.1 10.8 8.79999C12.1 7.49999 13.9 6.79999 15.7 6.79999C17.6 6.79999 19.3 7.49999 20.7 8.79999L34.9 23C36.1 24.2 38 24.2 39.1 23L53.2 8.89999C54.5 7.59999 56.3 6.89999 58.2 6.89999C60.1 6.89999 61.8 7.59999 63.1 8.89999C64.4 10.2 65.2 12 65.2 13.8C65.2 15.7 64.5 17.4 63.1 18.8L49 32.9C47.8 34.1 47.8 36 49 37.1L63.1 51.2C64.4 52.5 65.2 54.3 65.2 56.2C65.2 58.1 64.5 59.8 63.1 61.1C61.8 62.4 60 63.1 58.2 63.1C56.3 63.1 54.6 62.4 53.2 61.1L39.1 47C38.5 46.4 37.7 46.1 37 46.1C36.3 46.1 35.5 46.4 34.9 47L20.7 61.2C19.4 62.5 17.6 63.2 15.7 63.2C13.8 63.2 12.1 62.5 10.8 61.2C9.49999 59.9 8.69999 58.1 8.69999 56.3C8.79999 54.3 9.49999 52.6 10.8 51.3Z"/>
<path id="underline" d="M0 95C0 96.7 1.3 98 3 98H71C72.7 98 74 96.7 74 95C74 93.3 72.7 92 71 92H3C1.3 92 0 93.3 0 95Z"/>
<path id="underline-dot" d="M89 98C90.6569 98 92 96.6568 92 95C92 93.3431 90.6569 92 89 92C87.3431 92 86 93.3431 86 95C86 96.6568 87.3431 98 89 98Z"/>
</g>
</svg>
