<svg width="98" height="126" viewBox="0 0 98 126" fill="none" xmlns="http://www.w3.org/2000/svg">
<g id="pdf">
<path id="background" d="M10 3.5L6.5 6L2 10.5V109.5L4 118.5L7.5 122.5L14.5 123.5H80L89.5 122L93 118.5L94.5 113.5V37H73.5L67.5 35.5L64 32.5L61.5 28.5V3.5H10Z"/>
<g id="pdf_2">
<path id="Vector" d="M15 63C13.3 63 12 64.3 12 66V94C12 95.7 13.3 97 15 97C16.7 97 18 95.7 18 94V87H21C27.6 87 33 81.6 33 75C33 68.4 27.6 63 21 63H15ZM27 75C27 78.3 24.3 81 21 81H18V69H21C24.3 69 27 71.7 27 75Z"/>
<path id="Vector_2" d="M83 69C84.7 69 86 67.7 86 66C86 64.3 84.7 63 83 63H67C65.3 63 64 64.3 64 66V94C64 95.7 65.3 97 67 97C68.7 97 70 95.7 70 94V83H77C78.7 83 80 81.7 80 80C80 78.3 78.7 77 77 77H70V69H83Z"/>
<path id="Vector_3" d="M40 63C38.3 63 37 64.3 37 66V94C37 95.7 38.3 97 40 97H43C52.4 97 60 89.4 60 80C60 70.6 52.4 63 43 63H40ZM54 80C54 86.1 49.1 91 43 91V69C49.1 69 54 73.9 54 80Z"/>
</g>
<g id="file">
<path d="M72 33C68.1 33 65 29.9 65 26V10.2L87.8 33H72Z"/>
<path fill-rule="evenodd" clip-rule="evenodd" d="M0 113C0 120.2 5.8 126 13 126H85C92.2 126 98 120.2 98 113V36C98 35.2 97.7 34.5 97.1 33.9L64.1 0.9C63.5573 0.289426 62.7844 0.00102553 62 0.00357421L13 0C5.8 0 0 5.8 0 13V113ZM72 39C64.8 39 59 33.2 59 26V6H13C9.1 6 6 9.1 6 13V113C6 116.9 9.1 120 13 120H85C88.9 120 92 116.9 92 113V39H72ZM65 26C65 29.9 68.1 33 72 33H87.8L65 10.2V26Z"/>
</g>
</g>
</svg>
