<svg xmlns="http://www.w3.org/2000/svg" xmlns:xlink="http://www.w3.org/1999/xlink" version="1.1" x="0px" y="0px" viewBox="0 0 128 160" style="enable-background:new 0 0 128 128;" xml:space="preserve"><g><path d="M114,1H14C6.8,1,1,6.8,1,14v100c0,7.2,5.8,13,13,13h100c7.2,0,13-5.8,13-13V14C127,6.8,121.2,1,114,1z M121,114   c0,3.9-3.1,7-7,7H14c-3.9,0-7-3.1-7-7V14c0-3.9,3.1-7,7-7h100c3.9,0,7,3.1,7,7V114z"/><path d="M108,17H93.7c-1.5,0-2.7,1.1-3,2.5C89.6,26,83.9,31,77,31s-12.6-5-13.8-11.5c-0.3-1.4-1.5-2.5-3-2.5H20c-1.7,0-3,1.3-3,3   v68c0,1.7,1.3,3,3,3h88c1.7,0,3-1.3,3-3V20C111,18.3,109.7,17,108,17z M105,82c0,1.7-1.3,3-3,3H26c-1.7,0-3-1.3-3-3V57.3   c0-0.6,0.2-1.3,0.6-1.8l13.6-18.1c2.4-3.2,7.2-3.2,9.6,0L74,73.6c1.1,1.4,3.1,1.7,4.5,0.5c1.3-1.1,1.4-3,0.4-4.4l-5.3-7.1   c-0.8-1.1-0.8-2.6,0-3.7l8.7-11.6c2.4-3.2,7.2-3.2,9.6,0l12.6,16.8c0.4,0.5,0.6,1.2,0.6,1.8V82z"/></g><text x="0" y="143" fill="#000000" font-size="5px" font-weight="bold" font-family="'Helvetica Neue', Helvetica, Arial-Unicode, Arial, Sans-serif">Created by Kokota</text><text x="0" y="148" fill="#000000" font-size="5px" font-weight="bold" font-family="'Helvetica Neue', Helvetica, Arial-Unicode, Arial, Sans-serif">from the Noun Project</text></svg>