<svg width="112" height="126" viewBox="0 0 112 126" fill="none" xmlns="http://www.w3.org/2000/svg">
<g id="upload">
<path id="box" d="M3 102C1.3 102 0 103.3 0 105V123C0 124.7 1.3 126 3 126H109C110.7 126 112 124.7 112 123V105C112 103.3 110.7 102 109 102C107.3 102 106 103.3 106 105V120H6V105C6 103.3 4.7 102 3 102Z"/>
<path id="arrow" d="M67 41L81.9 55.9C86.6 60.6 94.2 60.6 98.9 55.9C103.6 51.2 103.6 43.6 98.9 38.9L64.5 4.50001C59.8 -0.199994 52.2 -0.199994 47.5 4.50001L13.2 38.9C10.9 41.2 9.7 44.2 9.7 47.4C9.7 50.6 10.9 53.6 13.2 55.9C17.9 60.6 25.5 60.6 30.2 55.9L45 41V97.4C45 99.1 46.3 100.4 48 100.4C49.7 100.4 51 99.1 51 97.4V33.7C51 32.5 50.3 31.4 49.1 30.9C48 30.4 46.7 30.7 45.8 31.6L25.8 51.6C23.5 53.9 19.7 53.9 17.3 51.6C16.2 50.5 15.5 49 15.5 47.4C15.5 45.8 16.1 44.3 17.3 43.2L51.8 8.80001C54.1 6.50001 57.9 6.50001 60.3 8.80001L94.6 43.1C96.9 45.4 96.9 49.2 94.6 51.6C92.3 53.9 88.5 53.9 86.1 51.6L66.1 31.6C65.2 30.7 64 30.5 62.8 30.9C61.7 31.4 60.9 32.5 60.9 33.7V77.4C60.9 79.1 62.2 80.4 63.9 80.4C65.6 80.4 66.9 79.1 66.9 77.4V41H67Z"/>
<path id="dot" d="M64 100.4C65.6569 100.4 67 99.0569 67 97.4C67 95.7432 65.6569 94.4 64 94.4C62.3431 94.4 61 95.7432 61 97.4C61 99.0569 62.3431 100.4 64 100.4Z"/>
</g>
</svg>
