<svg width="92" height="105" viewBox="0 0 92 105" fill="none" xmlns="http://www.w3.org/2000/svg">
<g id="user">
<path id="Vector" d="M11.9999 34C11.9999 52.7 27.2999 68 45.9999 68C64.6999 68 79.9999 52.7 79.9999 34C79.9999 15.3 64.6999 0 45.9999 0C27.2999 0 11.9999 15.3 11.9999 34ZM71.9999 34C71.9999 48.3 60.2999 60 45.9999 60C31.6999 60 19.9999 48.3 19.9999 34C19.9999 19.7 31.6999 8 45.9999 8C60.2999 8 71.9999 19.7 71.9999 34Z"/>
<path id="Vector_2" d="M6.39995 104.4C17 93.8 31 88 46 88C61 88 74.9999 93.8 85.5999 104.4L91.3 98.7C79.2 86.7 63.1 80 46 80C28.9 80 12.8 86.7 0.699951 98.7L6.39995 104.4Z"/>
</g>
</svg>
