<svg width="98" height="126" viewBox="0 0 98 126" fill="none" xmlns="http://www.w3.org/2000/svg">
<g id="xls">
<path id="array" d="M14 67V99C14 100.7 15.3 102 17 102H81C82.7 102 84 100.7 84 99V67C84 65.3 82.7 64 81 64H17C15.3 64 14 65.3 14 67ZM41 70H78V80H41V70ZM41 86H78V96H41V86ZM20 70H35V80H20V70ZM20 86H35V96H20V86Z"/>
<path id="file" d="M47 0H13C5.8 0 0 5.8 0 13V113C0 120.2 5.8 126 13 126H85C92.2 126 98 120.2 98 113V36C98 35.2 97.7 34.5 97.1 33.9L64.1 0.9C63.3 0 62 -0.2 60.9 0.2C59.7 0.7 59 1.8 59 3V26C59 33.2 64.8 39 72 39H92V113C92 116.9 88.9 120 85 120H13C9.1 120 6 116.9 6 113V13C6 9.1 9.1 6 13 6H47C48.7 6 50 4.7 50 3C50 1.3 48.7 0 47 0Z"/>
</g>
</svg>
